<svg xmlns="http://www.w3.org/2000/svg" viewBox="0 0 120 120" fill="none">

  <!-- Body -->
  <ellipse cx="60" cy="72" rx="28" ry="32" fill="#4f6ef7"/>

  <!-- Head -->
  <ellipse cx="60" cy="42" rx="26" ry="24" fill="#4f6ef7"/>

  <!-- Ear tufts -->
  <polygon points="38,24 32,10 44,20" fill="#3a56d4"/>
  <polygon points="82,24 88,10 76,20" fill="#3a56d4"/>

  <!-- Face plate -->
  <ellipse cx="60" cy="44" rx="18" ry="16" fill="#eef0f7"/>

  <!-- Left eye -->
  <circle cx="52" cy="42" r="7" fill="white"/>
  <circle cx="52" cy="42" r="4.5" fill="#1a1a2e"/>
  <circle cx="54" cy="40" r="1.5" fill="white"/>

  <!-- Right eye -->
  <circle cx="68" cy="42" r="7" fill="white"/>
  <circle cx="68" cy="42" r="4.5" fill="#1a1a2e"/>
  <circle cx="70" cy="40" r="1.5" fill="white"/>

  <!-- Beak -->
  <polygon points="60,50 55,56 65,56" fill="#f0a500"/>

  <!-- Wings -->
  <ellipse cx="36" cy="74" rx="12" ry="20" fill="#3a56d4" transform="rotate(-10 36 74)"/>
  <ellipse cx="84" cy="74" rx="12" ry="20" fill="#3a56d4" transform="rotate(10 84 74)"/>

  <!-- Belly pattern — %% motif -->
  <text x="60" y="78" font-family="'Fira Code', monospace" font-size="13" font-weight="700"
        fill="white" opacity="0.35" text-anchor="middle" letter-spacing="1">%%</text>

  <!-- Feet -->
  <ellipse cx="50" cy="103" rx="8" ry="4" fill="#f0a500" transform="rotate(-15 50 103)"/>
  <ellipse cx="70" cy="103" rx="8" ry="4" fill="#f0a500" transform="rotate(15 70 103)"/>

</svg>
